<?xml version="1.0" ?><svg data-name="Layer 1" id="Layer_1" viewBox="0 0 512 512" xmlns="http://www.w3.org/2000/svg"><defs><style>.cls-1{fill:#e54033;}.cls-2{fill:#c9c9c9;}.cls-3{fill:#fff;}</style></defs><g data-name="Airplane Icon" id="Airplane_Icon"><circle class="cls-1" cx="256" cy="256" r="256"/><g id="Airplane"><path class="cls-2" d="M121.37,369.48l-59.48-43.7a5.12,5.12,0,0,1-1.84-5.8l1.34-3.6a4.54,4.54,0,0,1,5.42-2.79q39,10.17,77.95,20.31C135.35,346.36,126.42,359.34,121.37,369.48Z"/><path class="cls-2" d="M192.74,447.73l-3.62,1.33a5.11,5.11,0,0,1-5.8-1.84l-43.68-59.47c10.14-5.05,23.12-14,35.58-23.39q10.16,39,20.31,77.95A4.56,4.56,0,0,1,192.74,447.73Z"/><path class="cls-2" d="M385.34,340l-19.53,19.53q-4.68-21.06-9.39-42.09l3.19-3.18a11.75,11.75,0,0,1,16.6,0l9.13,9.14A11.73,11.73,0,0,1,385.34,340Z"/><path class="cls-2" d="M369.11,286,353,302.08q-4.69-21-9.39-42.06a11.72,11.72,0,0,1,16.37.2l9.14,9.13A11.76,11.76,0,0,1,369.11,286Z"/><path class="cls-2" d="M249.78,165.66l-42.05-9.37,15.86-15.86a11.75,11.75,0,0,1,16.6,0l9.14,9.14A11.72,11.72,0,0,1,249.78,165.66Z"/><path class="cls-2" d="M195.27,149.94l-2.91,2.91q-21-4.71-42.07-9.4l19.25-19.25a11.71,11.71,0,0,1,16.58,0l9.15,9.15A11.73,11.73,0,0,1,195.27,149.94Z"/><path class="cls-3" d="M401.77,156.64a86.84,86.84,0,0,1-7.7,11.7c-13.37,17.1-35.38,39-57.62,59.65q3.57,16,7.14,32,4.71,21,9.4,42.05,1.72,7.71,3.44,15.37,4.71,21.07,9.37,42.11,7.18,32,14.34,64.18c.62,2.79-.5,5.26-2.82,6.2l-10.55,4.29c-3,1.23-7.17-.47-9.37-3.88L286.28,321.11,260,294.81c-27.88,22.95-41.81,34.41-42.17,34.74,0,0-20.48,18.1-42.63,34.82-12.43,9.4-25.42,18.34-35.56,23.39,0,0-5.17,2.76-15.37,3.91a6.63,6.63,0,0,1-3.11-.32,6.26,6.26,0,0,1-2.12-1.3,8,8,0,0,1-1-2,10,10,0,0,1-.56-3.2,33.79,33.79,0,0,1,3.91-15.37c5.06-10.14,14-23.12,23.39-35.58,16.69-22.13,34.79-42.61,34.79-42.61.33-.36,11.82-14.28,34.74-42.17L188,222.82,78.76,151.73c-3.41-2.23-5.11-6.34-3.88-9.37l4.29-10.58c1-2.32,3.41-3.44,6.23-2.82q32.44,7.23,64.89,14.49,21,4.67,42.08,9.4l15.37,3.44q21,4.67,42,9.37l31.32,7c20.69-22.28,42.58-44.29,59.66-57.66a96.09,96.09,0,0,1,11.72-7.7c8.4-4.67,21.63-11.84,37.29-10,4.73.59,10.87,1.41,15.72,6.26s5.67,11,6.26,15.72C413.64,135,406.47,148.21,401.77,156.64Z"/></g></g></svg>